<svg width="11" height="12" viewBox="0 0 11 12" fill="none" xmlns="http://www.w3.org/2000/svg">
<path d="M3.735 9.378C3.669 8.988 3.495 8.568 3.213 8.118C2.931 7.662 2.529 7.239 2.007 6.849C1.491 6.459 0.975 6.21 0.459 6.102V5.724C0.969 5.604 1.458 5.382 1.926 5.058C2.4 4.728 2.796 4.332 3.114 3.87C3.438 3.396 3.645 2.928 3.735 2.466H4.113C4.167 2.766 4.275 3.075 4.437 3.393C4.599 3.705 4.806 4.005 5.058 4.293C5.316 4.575 5.604 4.83 5.922 5.058C6.396 5.394 6.879 5.616 7.371 5.724V6.102C7.041 6.168 6.699 6.303 6.345 6.507C5.997 6.711 5.673 6.954 5.373 7.236C5.073 7.512 4.827 7.803 4.635 8.109C4.353 8.559 4.179 8.982 4.113 9.378H3.735Z" fill="#B8892A"/>
</svg>
